<svg version="1" xmlns="http://www.w3.org/2000/svg" width="1600" height="1600" viewBox="0 0 1200.000000 1200.000000"><path d="M771.8 177.5c-.2.2-1.6.5-3.3.8-3.9.6-11.5 2.6-14 3.6-5.2 2.2-13.6 5.3-14.7 5.5-.7.2-2.6.8-4.3 1.5-1.6.7-7.9 3.1-14 5.3-6 2.2-12.1 4.5-13.5 5.1-1.4.5-2.9 1.1-3.5 1.2-.5.2-3.5 1.3-6.5 2.5s-7.5 2.9-10 3.7c-2.5.9-5.6 2-7 2.6-1.4.6-2.7 1.1-3 1.2-1.7.6-17.7 6.5-26.5 9.9-4.9 1.8-10.8 4-13 4.7-2.2.8-4.2 1.6-4.5 1.9-.3.3-.9.6-1.5.7-.5.1-6.6 2.2-13.5 4.8-6.9 2.5-13.2 4.8-14.2 5-.9.2-3 1.1-4.7 1.9-1.7.9-3.1 1.4-3.1 1 0-.4-.6-.2-1.2.3-.7.6-3.1 1.6-5.3 2.3-2.2.7-4.5 1.7-5.2 2.2-.7.5-1.7.7-2.3.3-.5-.3-1-.1-1 .4 0 .6-.3 1-.7 1-.5-.1-1 0-1.3.1-.3.1-1.2.3-2 .5-2.1.5-71.9 26.3-75 27.7-1.4.6-3.1 1.2-3.7 1.4-2.9.6-10.3 3.7-10.3 4.4 0 .7-2.7 1.7-7 2.6-6.1 1.3-17.3 1.7-69.9 1.9-32.8.2-62.1.6-65.1.9-11 1-15.5 1.5-18 2-1.4.3-3.6.7-5 .9-1.4.3-4.2 1.2-6.3 2-2 .9-3.7 1.3-3.7 1 0-.3-.8.1-1.8 1-1 1-2.2 1.4-2.5 1-.4-.3-.7-.1-.7.5s-.9 1.4-2.1 1.7c-5.4 1.7-17.9 17.3-19.6 24.4-.3 1.4-.8 3-1.2 3.6-.3.5-.6 1.7-.7 2.5-.1.8-.6 3.7-1 6.5-.4 2.7-.8 5.4-.9 6-.1.5.3 1.8.7 2.7.6 1.2.5 1.8-.2 1.8s-.8.6-.1 1.9c.6 1 .8 2.1.5 2.3-.4.5-1 3-1.8 7.6-.3 1.5-5.4 5.2-7.2 5.2-.6 0-2.9.8-5 1.7-2.2.9-4.3 1.6-4.8 1.5-.4-.2-1.3.1-2 .6-.6.5-3.1 1.6-5.6 2.5-2.5.9-5.8 2.2-7.5 2.8-1.6.7-3.6 1.3-4.3 1.5-.8.1-2.1.6-3 1-.9.4-1.9.8-2.2.9-1.3.5-4.8 1.8-7.5 3-1.6.7-5.4 2-8.2 3-2.9.9-5.5 2.1-5.9 2.6-.3.5-.9.7-1.3.4-1.1-.6-12.2 4.8-17.8 8.7-5 3.3-10.8 9-13.9 13.3-2.2 3.1-6.6 12.5-5.9 12.5.3 0 0 1.2-.6 2.7-.6 1.6-1 5.9-1 9.8 0 6.7.2 8.3 1.6 15 .7 3.5 3.3 11.3 4.6 13.7.5 1 .9 2.3.9 2.9 0 .6.6 2.5 1.4 4.2 1.5 3.5 2.9 6.9 3 7.7.1.6 2.3 6.4 3.6 9.5 1.1 2.5 4.5 11.8 4.6 12.5 0 .3.4 1.4.9 2.5.4 1.1 2.1 5.4 3.6 9.5s3.3 8.8 4 10.5c.7 1.6 1.4 3.9 1.6 5 .2 1 .9 2.3 1.6 2.7.6.4.9.8.5.8-.6 0 2.2 8.6 4.9 15 .3.8.7 1.8.8 2.2.2.5.4 1 .5 1.3.1.3.3.8.5 1.2.1.5.7 2.1 1.3 3.6.7 1.6 1.2 3.1 1.2 3.4 0 .3.6 1.9 1.4 3.6.8 1.8 4.2 10.8 7.6 20.2 3.4 9.3 6.8 18.3 7.5 20 .8 1.6 1.7 4.3 2.1 6 .4 1.6 1 3.2 1.4 3.5.4.3 1.4 3 2.4 6s2.4 6.8 3.1 8.5c.8 1.6 2 5 2.8 7.5 1.4 4 5.5 15.2 7.7 20.5 3 7.4 8.3 22.2 8.3 23.2 0 .7.4 1.3.9 1.3s.6.4.3 1c-.3.5-.2 1 .3 1s1.2 1.4 1.6 3.1c.3 1.7 1.2 4.5 2 6.2.8 1.8 2.5 6.1 3.7 9.7 1.2 3.6 2.6 6.9 2.9 7.5.4.5 1.5 3.5 2.5 6.5s2.2 6.1 2.8 6.7c.5.7.6 1.3.3 1.3-.4 0-.2.9.4 2.1 1.3 2.4 1.9 4.7 2.6 10.9.5 4.5 1.1 8.5 1.4 8.5.7 0 1.1 30.4 1.3 95.7.1 43.5.6 77.8 1.1 77.8.5 0 .4.6-.1 1.2-.7 1.1-1.1 11.1-.4 12 .1.2.4 2.1.6 4.3 1.6 16 7.3 26.8 19.2 36.6 3.2 2.6 12.4 6.8 18.3 8.3 10.7 2.7 19 3.3 32.7 2.4 2.4-.2 4.5.1 4.7.7.3.6.5.5.5-.2.1-.8 1-.9 3.1-.3 1.7.5 3.3.9 3.6.8.2 0 1.9.6 3.7 1.3 3.5 1.5 6.6 4.6 6.7 6.8 0 2.2 11.7 25.4 13.9 27.8 1.2 1.2 2.1 2.5 2.1 2.8 0 1.7 10.1 10.5 14.7 12.9 2.9 1.4 5.6 2.6 6 2.6.5 0 2.4.3 4.3.7 5 .9 13.5.6 20.5-.7 5.6-1.1 32.8-9.5 35-10.8.6-.4 1.5-.7 2-.8.6-.1 6.4-2.3 13-4.8s12.6-4.6 13.3-4.6c.6 0 1.2-.4 1.2-.8 0-.5.6-.9 1.3-.9.7 0 5.5-1.6 10.7-3.5 11.2-4.2 12.9-4.8 13.4-4.5.1.1.9-.3 1.7-.9 1.1-.9 7.2-3.3 9.9-3.9.3-.1 1.6-.6 3-1.2 3-1.4 6.1-2.5 7.5-2.8 1.5-.4 22.4-8.4 26.4-10.1 1.9-.8 5.3-1.7 7.7-2 5.2-.5 8.7-1.8 12.6-4.6l3-2.1 121.8-.2c66.9-.1 122.2-.5 122.8-.9.7-.4 1.2-.3 1.2.1 0 1 4.1 1 5.7 0 .5-.4 1.3-.4 1.7 0 .9 1 11.5.9 10.9-.1-.3-.5.3-.4 1.3.2 1.1.6 2.7.7 4.2.1 1.3-.5 2.1-.5 1.8-.1-.5.8 6.8.6 9-.2.7-.3 1.6-.1 1.9.4.3.5 1.8.5 3.3 0 1.6-.4 3.6-.4 4.5.2 1.1.6 2.4.5 3.8-.2 1.4-.8 2.4-.8 3.2-.1.8.6 1.8.6 2.7.1.9-.5 1.9-.5 2.7.1.8.7 1.8.7 3.2-.1 1.5-.8 2.1-.8 2.1 0 0 .6.5.8 1.3.3.6-.4 3.2-.8 5.7-.9 8.2-.2 14.5-.7 15.5-1.3.6-.3 1.9-.7 3-.8 8-1.1 18.6-6.6 24.3-12.5 4.1-4.2 9.7-14.4 10.6-19.2.3-1.4.7-2.9.9-3.3.5-.9 1.7-8.4 2.4-15.3.2-2.5.4-11 .3-19v-15.8c0-.6 0-2-.1-3-.4-11.4-.4-27.9-.1-28.6.3-.5.7-2.8.9-5 .2-2.3.9-6.3 1.6-9l1.3-4.9 8.4-3.2c4.7-1.7 9.4-3.6 10.5-4.2 1.1-.6 2.3-1.1 2.8-1.2.9-.1 12.6-6 14.1-7.1 7.3-5.6 13-12.5 14.1-17 .1-.3.5-1.2.8-2 .4-.8.9-2.9 1.3-4.5.7-3.6.9-31.2.1-34-.3-1.1-1-4-1.6-6.5-.7-2.5-1.6-5.4-2.1-6.5-2.2-5-7-18.8-7-20.1 0-.8-.4-1.4-.8-1.4-.5 0-.9-.6-.9-1.3-.1-1.4-1.9-6.5-4.1-11.6-.8-1.8-2.5-6.3-3.8-10-1.3-3.6-3.3-9.1-4.4-12.1-1.2-3-2.6-7.1-3.2-9-.5-1.9-1.5-4.1-2-4.8-.6-.6-.7-1.2-.3-1.2.4 0 .1-.7-.6-1.7-.8-.9-1.3-1.9-1.2-2.2 0-.3-.5-2.1-1.3-4s-1.7-4.6-2.1-6c-.3-1.4-1.4-4.3-2.5-6.4-1-2-1.6-3.7-1.2-3.7.4 0 0-.7-.7-1.7-.8-.9-1.3-1.9-1.3-2.2.2-.9.2-.9-7.1-20.6-1.4-3.9-3-7.9-3.5-9-1.7-4-3-9.2-3.6-14.5-.9-8.5-1.1-49.1-.2-49.6.5-.3.5-1.1.1-1.7-.4-.7-.9-47.8-.9-104.7-.1-56.9-.5-106.7-.9-110.5-.9-10.2-3.1-19.7-6.1-26-5.9-12.6-13.3-19.4-27.9-25.5-4.9-2.1-8.4-2.3-44.5-2.4-36.9-.1-36.5-.1-41.7-5.3-1.1-1.2-2.7-3.9-3.3-6-1.2-3.5-9-24.2-11-28.8-.4-1.1-2.5-6.5-4.5-12-8.7-23.4-15.4-35.8-23.2-42.8-2-1.7-4.1-3.7-4.8-4.4-1.7-1.7-9.3-5-14.3-6.3-3.6-.9-20.5-1.3-21.4-.5z"/></svg>