<?xml version="1.0"?>
<svg xmlns="http://www.w3.org/2000/svg" xmlns:xlink="http://www.w3.org/1999/xlink" version="1.1" viewBox="0 0 252 252" width="48px" height="48px"><g transform=""><g fill="none" fill-rule="nonzero" stroke="none" stroke-width="1" stroke-linecap="butt" stroke-linejoin="miter" stroke-miterlimit="10" stroke-dasharray="" stroke-dashoffset="0" font-family="none" font-weight="none" font-size="none" text-anchor="none" style="mix-blend-mode: normal"><path d="M0,252v-252h252v252z" fill="none"/><path d="M126,252c-69.58788,0 -126,-56.41212 -126,-126v0c0,-69.58788 56.41212,-126 126,-126v0c69.58788,0 126,56.41212 126,126v0c0,69.58788 -56.41212,126 -126,126z" fill="#e8cef9"/><g><g id="surface1"><path d="M154.21875,95.2875v95.55h-75.075c-7.50483,0 -13.65,-6.14517 -13.65,-13.65v-81.9z" fill="#6c10b1"/><path d="M92.79375,61.1625v116.025c0,7.50483 -6.14517,13.65 -13.65,13.65h98.9625c7.50483,0 13.65,-6.14517 13.65,-13.65v-116.025z" fill="#c7ea6e"/><path d="M113.26875,78.225h61.425v13.65h-61.425z" fill="#6c10b1"/><path d="M113.26875,102.1125h27.3v6.825h-27.3z" fill="#6c10b1"/><path d="M147.39375,102.1125h27.3v6.825h-27.3z" fill="#6c10b1"/><path d="M113.26875,115.7625h27.3v6.825h-27.3z" fill="#6c10b1"/><path d="M147.39375,115.7625h27.3v6.825h-27.3z" fill="#6c10b1"/><path d="M113.26875,129.4125h27.3v6.825h-27.3z" fill="#6c10b1"/><path d="M147.39375,129.4125h27.3v6.825h-27.3z" fill="#6c10b1"/><path d="M113.26875,143.0625h27.3v6.825h-27.3z" fill="#6c10b1"/><path d="M147.39375,143.0625h27.3v6.825h-27.3z" fill="#6c10b1"/><path d="M113.26875,156.7125h27.3v6.825h-27.3z" fill="#6c10b1"/><path d="M147.39375,156.7125h27.3v6.825h-27.3z" fill="#6c10b1"/><path d="M113.26875,170.3625h27.3v6.825h-27.3z" fill="#6c10b1"/><path d="M147.39375,170.3625h27.3v6.825h-27.3z" fill="#6c10b1"/></g></g><path d="M126,252c-69.58788,0 -126,-56.41212 -126,-126v0c0,-69.58788 56.41212,-126 126,-126v0c69.58788,0 126,56.41212 126,126v0c0,69.58788 -56.41212,126 -126,126z" fill="none"/><path d="M126,246.96c-66.80436,0 -120.96,-54.15564 -120.96,-120.96v0c0,-66.80436 54.15564,-120.96 120.96,-120.96h0c66.80436,0 120.96,54.15564 120.96,120.96v0c0,66.80436 -54.15564,120.96 -120.96,120.96z" fill="none"/></g></g></svg>
