<?xml version="1.0" encoding="utf-8"?>
<!-- Generator: Adobe Illustrator 22.0.1, SVG Export Plug-In . SVG Version: 6.00 Build 0)  -->
<svg version="1.1" id="Layer_1" xmlns="http://www.w3.org/2000/svg" xmlns:xlink="http://www.w3.org/1999/xlink" x="0px" y="0px"
	 viewBox="0 0 612 792" style="enable-background:new 0 0 612 792;" xml:space="preserve">
<style type="text/css">
	.st0{fill:#F9EF86;}
	.st1{fill:#4CAE47;}
	.st2{fill:#4DAF48;}
	.st3{fill:#4DAF47;}
	.st4{fill:#A2D289;}
	.st5{fill:#831F93;}
</style>
<g>
	<path class="st0" d="M369.2,323.2c1.1,1.5,2.6,1.8,4.4,1.7c3.3-0.1,6.7,0.2,10-0.1c11-0.9,16.2,5,16.2,16.4
		c0,19.8,0.1,39.6,0.1,59.4c0,2.5,0,5,0.8,7.4c1.6,15.8,0.5,31.6,0.8,47.5c0,2.3,0,4.6-0.6,6.9c-1.9,6-0.7,12.2-0.8,18.3
		c-0.2,12-4.3,16.2-16.1,16.3c-25.7,0.1-51.3,0.1-77,0.2c-1.5,0.5-3,0.8-4.6,0.9c-3.4,0.6-6.9,0.7-10.4,0.6
		c-11.6-0.3-23.1,0.3-34.6,1c-2.3,0.1-4.6,0-6.9-0.7c-2.6-1.8-5.5-0.8-8.2-0.9c-9.4-0.4-14.4-5.4-14.4-14.7
		c-0.1-11.3,0-22.6-0.1-33.8c0-4.8,0.2-9.6-0.8-14.3c-1.5-28-1.9-56-1.7-84c0-2.5-0.1-5,0.8-7.4c1.3-1.8,0.8-3.8,0.9-5.8
		c0.4-6.7,5.1-11.3,11.7-12.1c10.8-1.3,21.6-0.4,32.4-0.7c2.3-0.1,4.7,0.1,6.9-0.8c23.6-1.9,47.2-0.5,70.7-0.9
		C355.6,323.3,362.4,323.4,369.2,323.2z"/>
	<path class="st1" d="M369.2,323.2c-0.5,2.1-2.2,1.6-3.7,1.6c-28.1,0.1-56.2,0.2-84.3,0.2c-1.1,0-2.4,0.1-3.3-0.8
		c21.8-8,43.6-16,65.3-24.2c11-4.1,16.7-1.5,20.8,9.6C365.8,314.3,367.5,318.7,369.2,323.2z"/>
	<path class="st1" d="M226.2,343.7c1.3,1.2,0.9,2.8,0.9,4.2c0.2,27.6,0.5,55.2,0.7,82.8c0,1.5,0.4,3-0.7,4.3
		c-8.4-22.5-17-45-25.3-67.6c-3-8.2,0-14.4,8-17.6C215.2,347.7,220.7,345.8,226.2,343.7z"/>
	<path class="st2" d="M250.6,498.8c1.1-1.4,2.7-1.1,4.1-1.1c16-0.2,32.1-0.4,48.1-0.6c0.7,0.6,0.7,1.1,0,1.7
		c-9.5,3.5-19,7.1-28.4,10.6C260.4,514.7,256,512.7,250.6,498.8z"/>
	<path class="st3" d="M401,462.4c-1-1.1-0.8-2.5-0.8-3.8c-0.1-15.8-0.1-31.5-0.2-47.3c0-1.2-0.1-2.3,0.8-3.3
		c4,10.9,8.1,21.7,12.1,32.6c0.6,1.5,1.1,3.2,1.2,4.8C414.7,456,413.1,458.1,401,462.4z"/>
	<path class="st4" d="M302.9,498.9c0-0.6,0-1.1,0-1.7c1.4,0,2.8,0,4.2-0.1C305.9,498.2,304.6,498.9,302.9,498.9z"/>
	<path class="st5" d="M288.2,420.1c4.1,0,7,0,10,0c2.9,0,5.9,0,9.6,0c-10.8,10.8-20.9,21-31.1,31.1c0.2,0.5,0.3,1.1,0.5,1.6
		c29.1,0,58.3,0,87.4,0c0.1,0.6,0.3,1.1,0.4,1.7c-4.6,6.2-10.6,11-17.4,14.8c-26,14.5-57.1,11.4-79.9-7.7
		c-21.6-18.1-29.5-48.7-20-76.4c0.9-2.7,2.1-3.7,4.9-3.6c19,0.3,38,0.4,57,0.6c1.1,0,2.5-0.6,3.2,0.7c0.6,1.2-0.7,2.1-1.3,3
		C304,396.9,296.5,407.9,288.2,420.1z"/>
	<path class="st5" d="M312.2,408.4c11.3-13.7,22.6-27.4,35.1-42.4c-28.5,0-55.5,0-82.5,0c-0.1-0.5-0.2-1-0.4-1.5
		c4.3-4.4,9.7-7.6,15-10.7c46.4-27.8,102.3,7.4,102.6,58.5c0,7.8-2.6,15.1-3.4,22.6c-0.2,1.9-1.4,2.4-3.2,2.3
		c-22.1-0.2-44.3-0.4-66.4-0.7c-0.3,0-0.5-0.3-1.4-0.9c7.6-8.4,15.1-16.7,23.4-25.9c-6.8,0-12.6,0-18.4,0
		C312.5,409.3,312.4,408.9,312.2,408.4z"/>
</g>
</svg>
